<?xml version="1.0" encoding="utf-8"?>
<!-- Generator: Adobe Illustrator 22.1.0, SVG Export Plug-In . SVG Version: 6.00 Build 0)  -->
<svg version="1.1" id="katman_1" xmlns="http://www.w3.org/2000/svg" xmlns:xlink="http://www.w3.org/1999/xlink" x="0px" y="0px"
	 viewBox="0 0 510.8 510.9" style="enable-background:new 0 0 510.8 510.9;" xml:space="preserve">
<style type="text/css">
	.st0{fill:#FFFFFF;}
	.st1{fill:#06A0FF;}
	.st2{font-family:'BebasKai';}
	.st3{font-size:97.9141px;}
	.st4{fill:none;stroke:#06A0FF;stroke-width:5;stroke-miterlimit:10;}
</style>
<g>
	<path class="st0" d="M248.2,510.9c-15.3-2.7-29.2-8.5-41.4-18.4c-14.8-12-26.1-26.9-35.6-43.3c-13-22.6-22.2-46.8-28.6-72
		c-1.4-5.3-3.5-7.8-9-9.2c-29.5-7.5-57.6-18.4-83-35.3c-17.7-11.7-33.4-25.6-42.7-45.1c-12.4-25.8-9.9-50.9,6.2-74.5
		c7.6-11.1,17.1-20.3,27.8-28.3c1.8-1.4,3.7-2.8,6.4-4.9c-6-1.2-11-2.2-16.1-3.3c-6.6-1.4-9.9-5.6-8.8-11c1-5.3,5.4-8,11.9-6.9
		c12.1,2.2,24.2,4.5,36.2,7c6.1,1.3,8.8,5.7,7.6,11.9c-2.2,11.8-4.4,23.5-6.8,35.2c-1.3,6.5-5.7,9.8-11.2,8.6
		c-5.2-1.1-7.7-5.5-6.7-12c0.3-2.1,0.8-4.2,1.2-6.4c0.3-1.9,0.7-3.9,1.1-6c-20.1,11.9-42.2,38.3-38.1,64.7
		c2.2,14.8,9.7,26.7,20,37.1c17.5,17.8,38.9,29.3,61.8,38.4c11.5,4.6,23.3,8.3,36.1,12.8c-11.7-63.7-11.7-126-0.1-189.2
		c-7.5,2.3-13.9,4.3-20.3,6.3c-8,2.6-13.3,1.1-15.2-4.5c-2-5.8,1.3-10.3,9.7-12.9c7.6-2.4,15.1-5.1,22.9-6.8
		c5.8-1.2,7.9-4.1,9.3-9.6c6.4-25.2,15.5-49.4,28.6-72c11.2-19.1,24.5-36.4,43.4-48.7c28.1-18.4,60.7-16.7,87.2,4.2
		c22.7,17.9,37.7,41.5,48.8,67.6c6.8,16,11.9,32.7,17.1,49.3c1.6,5,3.6,7.5,8.8,8.9c29.6,7.6,57.9,18.5,83.5,35.6
		c17.2,11.5,32.4,25.1,42,43.8c14.5,28.4,10.3,55-8.5,79.9c-14.9,19.7-35,33-56.6,43.9c-20.1,10.2-41.3,17.4-63.1,23
		c-3.2,0.8-4.6,2.2-5.5,5.4c-2.6,9.4-5.5,18.8-8.4,28.1c-2,6.4-6.8,9.2-12,7.5c-5.1-1.6-7.2-6.8-5.3-13.2c2.2-7.1,4.4-14.2,6.9-22.3
		c-63.1,11.6-125.4,11.6-188.8,0c2.6,8.2,4.8,15.6,7.4,22.9c8.7,24.7,19.8,48.3,37.2,68.3c8.7,10,18.6,18.5,31.2,23.4
		c15.8,6.1,31,4.3,45.4-4.2c13.4-7.8,27.8-22.6,34.2-34.8c-4.5,0.5-8.7,1-13,1.4c-6.1,0.6-10.4-2.1-11.3-7.2
		c-0.9-5.5,2.2-9.9,8.5-10.7c12.2-1.7,24.4-3.2,36.6-4.4c6.7-0.7,10.2,2,11.2,8.5c1.8,12.3,3.3,24.7,4.6,37.1
		c0.6,5.7-2.8,9.8-7.7,10.4c-5.4,0.6-9.3-2.4-10.3-8.5c-0.9-5.2-1.4-10.5-2.3-16.9c-2.2,2.9-4,5.2-5.7,7.4
		c-10.5,14-22.3,26.7-38.2,34.4c-8.7,4.2-18.4,6.3-27.6,9.3C256.9,510.9,252.6,510.9,248.2,510.9z M364.6,261.9
		c0-38.4-3.2-70.4-9.8-102.1c-0.3-1.6-2.4-3.8-3.8-4c-23-3.2-46-7.3-69.1-8.9c-41-2.9-81.7,0.4-122,8.5c-3.1,0.6-4.1,1.8-4.5,4.7
		c-1.6,10.7-3.7,21.3-5.2,32c-7.5,53.4-5.2,106.4,5.4,159.1c0.3,1.5,2.2,3.6,3.6,3.7c23.2,3.2,46.3,7.3,69.6,9
		c41,2.9,81.7-0.5,122-8.7c2.6-0.5,3.8-1.5,4.4-4.3C361.6,319.5,364.5,287.8,364.6,261.9z M374.2,161.1
		c11.6,63.3,11.6,125.6,0,187.9c1.2,0,1.7,0.1,2.1,0c19.5-5.6,38.6-12.5,56.5-22c16.9-8.9,32.6-19.4,44.8-34.4
		c9.7-12,15.8-25.3,14.5-41.2c-1.4-16.1-9.4-28.9-20.6-39.9C444.7,184.9,410.6,172,374.2,161.1z M161.1,136.5
		c63.2-11.9,125.4-11.6,188.9-0.1c-4.6-13.1-8.4-24.9-13-36.5c-9.1-22.7-20.7-43.9-38.2-61.4c-27.1-27-60-27-87.2,0
		c-12.3,12.2-21.6,26.5-29.4,41.8C173.3,98,166.5,116.5,161.1,136.5z"/>
	<text transform="matrix(1 0 0 1 188.9698 292.869)" class="st1 st2 st3">360</text>
	<circle class="st4" cx="321.7" cy="209.6" r="14"/>
</g>
</svg>
