<?xml version="1.0" encoding="utf-8"?>
<!-- Generator: Adobe Illustrator 22.1.0, SVG Export Plug-In . SVG Version: 6.00 Build 0)  -->
<svg version="1.1" id="katman_1" xmlns="http://www.w3.org/2000/svg" xmlns:xlink="http://www.w3.org/1999/xlink" x="0px" y="0px"
	 viewBox="0 0 512 362.6" style="enable-background:new 0 0 512 362.6;" xml:space="preserve">
<style type="text/css">
	.st0{fill:#FFFFFF;}
</style>
<g>
	<path class="st0" d="M0,185c2.8,3,5.5,6.2,8.4,9.1c54.1,54.1,108.2,108.2,162.2,162.3c1.4,1.4,2.8,2.9,4.4,4.1
		c4.2,3.2,10,2.7,13.7-0.9c3.8-3.7,4.4-9.3,1.2-13.7c-1.1-1.6-2.6-3-4-4.4c-48.1-48.1-96.1-96.2-144.2-144.2c-1.4-1.4-3-2.6-4.6-3.9
		c0.1-0.5,0.3-0.9,0.4-1.4c1.8,0,3.7,0,5.5,0c151.6,0,303.3,0,454.9,0.1c6.6,0,11.3-1.9,14-8.1c0-2,0-4,0-6c-3.2-5.7-8-7.4-14.5-7.4
		c-151.1,0.1-302.3,0.1-453.4,0.1c-2,0-4,0-7.3,0c1.9-2.1,3.1-3.5,4.4-4.8c48.2-48.2,96.4-96.4,144.6-144.6c1.4-1.4,2.9-2.8,4.1-4.4
		c3.3-4.4,2.9-9.9-0.8-13.7c-3.8-4-9.5-4.5-14.1-1c-1.7,1.3-3.2,2.9-4.7,4.4C116.6,60.3,62.9,113.9,9.3,167.5
		c-3.1,3.1-6.2,6.3-9.3,9.5C0,179.7,0,182.3,0,185z"/>
</g>
</svg>
