<?xml version="1.0" encoding="utf-8"?>
<!-- Generator: Adobe Illustrator 22.1.0, SVG Export Plug-In . SVG Version: 6.00 Build 0)  -->
<svg version="1.1" id="Layer_1" xmlns="http://www.w3.org/2000/svg" xmlns:xlink="http://www.w3.org/1999/xlink" x="0px" y="0px"
	 viewBox="0 0 48 48" style="enable-background:new 0 0 48 48;" xml:space="preserve">
<style type="text/css">
	.st0{fill:#3D3D9B;}
	.st1{clip-path:url(#SVGID_2_);fill:#FFFFFF;}
	.st2{fill:#D4D4FA;}
	.st3{clip-path:url(#SVGID_4_);}
</style>
<polygon class="st0" points="44,12 44,37 24,43 24,5 "/>
<g>
	<defs>
		<rect id="SVGID_1_" width="48" height="48"/>
	</defs>
	<clipPath id="SVGID_2_">
		<use xlink:href="#SVGID_1_"  style="overflow:visible;"/>
	</clipPath>
	<path class="st1" d="M24,44.5c-0.1,0-0.3,0-0.4-0.1l-20-6c-0.6-0.2-1.1-0.8-1.1-1.4V12c0-0.6,0.4-1.2,1-1.4l20-7
		c0.3-0.1,0.7-0.1,1,0l20,7c0.6,0.2,1,0.8,1,1.4v25c0,0.7-0.4,1.2-1.1,1.4l-20,6C24.3,44.5,24.1,44.5,24,44.5 M5.5,35.9L24,41.4
		l18.5-5.5V13.1L24,6.6L5.5,13.1V35.9z M44,37L44,37L44,37z"/>
	<path class="st1" d="M44,22.5c-0.1,0-0.2,0-0.3,0L36.4,21c-0.8-0.2-1.3-1-1.2-1.8c0.2-0.8,1-1.3,1.8-1.2l7.4,1.5
		c0.8,0.2,1.3,1,1.2,1.8C45.3,22,44.7,22.5,44,22.5"/>
	<path class="st1" d="M31.1,19.9c-0.4,0-0.8-0.1-1.1-0.4c-0.3-0.3-0.4-0.7-0.4-1.1c0-0.1,0-0.2,0-0.3c0-0.1,0.1-0.2,0.1-0.3
		c0-0.1,0.1-0.2,0.1-0.3c0.1-0.1,0.1-0.2,0.2-0.2c0.1-0.1,0.1-0.1,0.2-0.2c0.1,0,0.2-0.1,0.3-0.1c0.1,0,0.2-0.1,0.3-0.1
		c0.2,0,0.4,0,0.6,0c0.1,0,0.2,0,0.3,0.1c0.1,0,0.2,0.1,0.3,0.1c0.1,0.1,0.2,0.1,0.2,0.2c0.1,0.1,0.1,0.2,0.2,0.2
		c0.1,0.1,0.1,0.2,0.1,0.3s0.1,0.2,0.1,0.3c0,0.1,0,0.2,0,0.3c0,0.4-0.2,0.8-0.4,1.1C31.9,19.8,31.5,19.9,31.1,19.9"/>
	<path class="st1" d="M4,22.5c-0.7,0-1.3-0.5-1.5-1.2c-0.2-0.8,0.4-1.6,1.2-1.8l20-4c0.8-0.2,1.6,0.4,1.8,1.2
		c0.2,0.8-0.4,1.6-1.2,1.8l-20,4C4.2,22.5,4.1,22.5,4,22.5"/>
	<path class="st1" d="M24,44.5c-0.8,0-1.5-0.7-1.5-1.5V5c0-0.8,0.7-1.5,1.5-1.5c0.8,0,1.5,0.7,1.5,1.5v38
		C25.5,43.8,24.8,44.5,24,44.5"/>
</g>
</svg>
