<?xml version="1.0" encoding="utf-8"?>
<!-- Generator: Adobe Illustrator 22.1.0, SVG Export Plug-In . SVG Version: 6.00 Build 0)  -->
<svg version="1.1" id="Layer_1" xmlns="http://www.w3.org/2000/svg" xmlns:xlink="http://www.w3.org/1999/xlink" x="0px" y="0px"
	 viewBox="0 0 48 48" style="enable-background:new 0 0 48 48;" xml:space="preserve">
<style type="text/css">
	.st0{fill:#3D3D9B;}
	.st1{fill:#FFFFFF;}
	.st2{fill:#D4D4FA;}
</style>
<path class="st0" d="M29,33v11h-4v-5c0-1.1-0.9-2-2-2h-4v-4H29z"/>
<path class="st0" d="M9,9.5h10.5C27.5,9.5,34,16,34,24v19.9h5V4H9V9.5z"/>
<path class="st1" d="M39,39.2c-0.4,0-0.8-0.2-1.1-0.4c-0.1-0.1-0.1-0.1-0.2-0.2c-0.1-0.1-0.1-0.2-0.1-0.3c0-0.1-0.1-0.2-0.1-0.3
	c0-0.1,0-0.2,0-0.3c0-0.4,0.2-0.8,0.4-1.1c0.6-0.6,1.6-0.6,2.1,0c0.3,0.3,0.4,0.7,0.4,1.1c0,0.1,0,0.2,0,0.3s0,0.2-0.1,0.3
	c0,0.1-0.1,0.2-0.1,0.3c-0.1,0.1-0.1,0.2-0.2,0.2C39.8,39,39.4,39.2,39,39.2"/>
<path class="st1" d="M39,45.5H9c-0.8,0-1.5-0.7-1.5-1.5V4c0-0.8,0.7-1.5,1.5-1.5h30c0.8,0,1.5,0.7,1.5,1.5v28.8
	c0,0.8-0.7,1.5-1.5,1.5c-0.8,0-1.5-0.7-1.5-1.5V5.5h-27v37H39c0.8,0,1.5,0.7,1.5,1.5S39.8,45.5,39,45.5"/>
<path class="st1" d="M39,15.5H9c-0.8,0-1.5-0.7-1.5-1.5c0-0.8,0.7-1.5,1.5-1.5h30c0.8,0,1.5,0.7,1.5,1.5
	C40.5,14.8,39.8,15.5,39,15.5"/>
<path class="st1" d="M39,25.5H9c-0.8,0-1.5-0.7-1.5-1.5c0-0.8,0.7-1.5,1.5-1.5h30c0.8,0,1.5,0.7,1.5,1.5
	C40.5,24.8,39.8,25.5,39,25.5"/>
<path class="st1" d="M29,45.5H19c-0.8,0-1.5-0.7-1.5-1.5V33c0-0.8,0.7-1.5,1.5-1.5h10c0.8,0,1.5,0.7,1.5,1.5v11
	C30.5,44.8,29.8,45.5,29,45.5 M20.5,42.5h7v-8h-7V42.5z"/>
<path class="st1" d="M19,25.5c-0.8,0-1.5-0.7-1.5-1.5V4c0-0.8,0.7-1.5,1.5-1.5c0.8,0,1.5,0.7,1.5,1.5v20
	C20.5,24.8,19.8,25.5,19,25.5"/>
<path class="st1" d="M29,25.5c-0.8,0-1.5-0.7-1.5-1.5V4c0-0.8,0.7-1.5,1.5-1.5c0.8,0,1.5,0.7,1.5,1.5v20
	C30.5,24.8,29.8,25.5,29,25.5"/>
</svg>
