<?xml version="1.0" encoding="utf-8"?>
<!-- Generator: Adobe Illustrator 22.1.0, SVG Export Plug-In . SVG Version: 6.00 Build 0)  -->
<svg version="1.1" id="Layer_1" xmlns="http://www.w3.org/2000/svg" xmlns:xlink="http://www.w3.org/1999/xlink" x="0px" y="0px"
	 viewBox="0 0 48 48" style="enable-background:new 0 0 48 48;" xml:space="preserve">
<style type="text/css">
	.st0{fill:#D4D4FA;}
</style>
<polyline class="st0" points="46.8,24.1 39.9,7.9 35.2,13.6 34.5,21 36.9,24.2 33.7,27 33.3,33.3 28.6,34.2 23.9,40.2 25,44.2 
	40.1,39.9 40.1,30.6 46.8,24.1 "/>
<g>
	<polygon points="24.1,1.2 30.7,7.9 39.9,7.9 39.9,21 37.4,18.2 37.4,10.7 29.7,10.7 24.1,5 23.2,5.8 19.4,5.8 	"/>
	<polygon points="46.8,24.1 40.1,30.6 40.1,39.9 27,39.9 29.8,37.3 37.2,37.3 37.2,29.7 43,24.1 42.2,23.2 42.2,19.4 	"/>
	<polygon points="23.9,46.8 17.3,40.1 8.1,40.1 8.1,27 10.6,29.8 10.6,37.3 18.3,37.3 23.9,43 24.8,42.2 28.6,42.2 	"/>
	<polygon points="1.2,23.9 7.9,17.4 7.9,8.1 21,8.1 18.2,10.7 10.8,10.7 10.8,18.3 5,23.9 5.8,24.8 5.8,28.6 	"/>
	<path d="M23.9,12.7l2.2,2.3l0.9,1h1.3H32v3.7v1.4l1,0.9l2.2,2.1l-2.3,2.4L32,27.4v1.3v3.6h-3.7H27l-0.9,1l-2.2,2.3l-2.2-2.3l-0.9-1
		h-1.4h-3.7v-3.6v-1.3l-0.9-0.9l-2.3-2.4l2.2-2.1l1-0.9v-1.4V16h3.7h1.3l0.9-1L23.9,12.7 M23.9,8.1l-4.5,4.7h-6.8v6.9L8.1,24
		l4.5,4.6v6.7h6.8l4.5,4.8l4.5-4.8h6.8v-6.7l4.5-4.6l-4.5-4.3v-6.9h-6.8L23.9,8.1L23.9,8.1z"/>
</g>
</svg>
