<?xml version="1.0" encoding="utf-8"?>
<!-- Generator: Adobe Illustrator 22.1.0, SVG Export Plug-In . SVG Version: 6.00 Build 0)  -->
<svg version="1.1" id="Layer_1" xmlns="http://www.w3.org/2000/svg" xmlns:xlink="http://www.w3.org/1999/xlink" x="0px" y="0px"
	 viewBox="0 0 48 48" style="enable-background:new 0 0 48 48;" xml:space="preserve">
<style type="text/css">
	.st0{fill:#3D3D9B;}
	.st1{fill:#FFFFFF;}
	.st2{clip-path:url(#SVGID_2_);fill:#D4D4FA;}
	.st3{clip-path:url(#SVGID_2_);}
</style>
<g>
	<defs>
		<rect id="SVGID_1_" width="48" height="48"/>
	</defs>
	<clipPath id="SVGID_2_">
		<use xlink:href="#SVGID_1_"  style="overflow:visible;"/>
	</clipPath>
	<path class="st2" d="M26.5,28.5C25.7,28.8,24.9,29,24,29c-3.3,0-6-2.7-6-6c0-3.3,2.7-6,6-6c0.9,0,1.7,0.2,2.5,0.5
		c-2.1,0.9-3.5,3-3.5,5.5S24.4,27.5,26.5,28.5"/>
	<polygon class="st2" points="27.9,8.1 9.9,22.5 8.8,17.1 24,5 	"/>
	<path class="st3" d="M44,22.5c-0.3,0-0.7-0.1-0.9-0.3L24,6.9L4.9,22.2c-0.6,0.5-1.6,0.4-2.1-0.2c-0.5-0.6-0.4-1.6,0.2-2.1l20-16
		c0.5-0.4,1.3-0.4,1.9,0l20,16c0.6,0.5,0.8,1.5,0.2,2.1C44.9,22.3,44.4,22.5,44,22.5"/>
	<path class="st3" d="M34,44.5H14c-0.7,0-1.3-0.5-1.5-1.2l-5-25c-0.2-0.8,0.4-1.6,1.2-1.8c0.8-0.2,1.6,0.4,1.8,1.2l4.8,23.8h17.5
		l2.6-12.8c0.2-0.8,1-1.3,1.8-1.2c0.8,0.2,1.3,1,1.2,1.8l-2.8,14C35.3,44,34.7,44.5,34,44.5"/>
	<path class="st3" d="M37.9,24.8c-0.1,0-0.2,0-0.3,0c-0.1,0-0.2-0.1-0.3-0.1c-0.1,0-0.2-0.1-0.3-0.1c-0.1-0.1-0.2-0.1-0.2-0.2
		c-0.1-0.1-0.1-0.1-0.2-0.2c-0.1-0.1-0.1-0.2-0.1-0.3s-0.1-0.2-0.1-0.3c0-0.1,0-0.2,0-0.3c0-0.4,0.2-0.8,0.4-1.1
		c0.1-0.1,0.2-0.1,0.2-0.2c0.1,0,0.2-0.1,0.3-0.1c0.1,0,0.2-0.1,0.3-0.1c0.2,0,0.4,0,0.6,0c0.1,0,0.2,0,0.3,0.1
		c0.1,0,0.2,0.1,0.3,0.1c0.1,0.1,0.2,0.1,0.2,0.2c0.3,0.3,0.4,0.7,0.4,1.1c0,0.1,0,0.2,0,0.3c0,0.1,0,0.2-0.1,0.3s-0.1,0.2-0.1,0.3
		c-0.1,0.1-0.1,0.2-0.2,0.2c-0.1,0.1-0.1,0.1-0.2,0.2c-0.1,0.1-0.2,0.1-0.3,0.1c-0.1,0-0.2,0.1-0.3,0.1C38.1,24.8,38,24.8,37.9,24.8
		"/>
	<path class="st3" d="M24,30.5c-4.1,0-7.5-3.4-7.5-7.5s3.4-7.5,7.5-7.5s7.5,3.4,7.5,7.5S28.1,30.5,24,30.5 M24,18.5
		c-2.5,0-4.5,2-4.5,4.5s2,4.5,4.5,4.5s4.5-2,4.5-4.5S26.5,18.5,24,18.5"/>
	<path class="st3" d="M24,38.5c-1.4,0-2.5-1.1-2.5-2.5c0-1.4,1.1-2.5,2.5-2.5c1.4,0,2.5,1.1,2.5,2.5C26.5,37.4,25.4,38.5,24,38.5
		 M24,35.5c-0.3,0-0.5,0.2-0.5,0.5s0.2,0.5,0.5,0.5c0.3,0,0.5-0.2,0.5-0.5S24.3,35.5,24,35.5"/>
</g>
</svg>
