<?xml version="1.0" encoding="utf-8"?>
<!-- Generator: Adobe Illustrator 22.1.0, SVG Export Plug-In . SVG Version: 6.00 Build 0)  -->
<svg version="1.1" id="Layer_1" xmlns="http://www.w3.org/2000/svg" xmlns:xlink="http://www.w3.org/1999/xlink" x="0px" y="0px"
	 viewBox="0 0 48 48" style="enable-background:new 0 0 48 48;" xml:space="preserve">
<style type="text/css">
	.st0{fill:#D4D4FA;}
	.st1{fill:#040405;}
	.st2{fill:#3D3D9B;}
	.st3{fill:#FFFFFF;}
</style>
<path class="st2" d="M44,21h-5c-0.8-1.1-1.7-1.9-2.8-2.5C32.6,12.8,26.1,9,19,9c-4.3,0-8.3,1.4-11.6,3.7C11.1,7.4,17.2,4,24,4
	C33.9,4,42.4,11.2,44,21"/>
<path class="st3" d="M44,22.5h-5c-0.5,0-1-0.2-1.2-0.6c-1.3-1.9-3.5-2.8-5.4-2.4c-1.7,0.4-2.7,1.8-3.1,2.3c-0.3,0.4-0.8,0.7-1.3,0.7
	h-8c-0.5,0-1-0.3-1.3-0.7c-0.3-0.6-1.3-1.9-3.1-2.3c-2-0.4-4.1,0.5-5.4,2.4C10,22.3,9.5,22.5,9,22.5H4c-0.4,0-0.9-0.2-1.1-0.5
	c-0.3-0.3-0.4-0.8-0.3-1.2C4.2,10.3,13.5,2.5,24,2.5s19.8,7.8,21.5,18.3c0.1,0.4-0.1,0.9-0.3,1.2C44.9,22.3,44.4,22.5,44,22.5
	 M39.7,19.5h2.4c-2.1-8.1-9.7-14-18.1-14s-16,5.9-18.1,14h2.4c2-2.4,5.2-3.6,8.1-3c2.2,0.5,3.7,1.9,4.5,3h6.4c0.8-1,2.2-2.4,4.5-3
	C34.6,15.9,37.7,17.1,39.7,19.5"/>
<path class="st3" d="M37,41.5h-5.2c-0.8,0-1.5-0.7-1.5-1.5s0.7-1.5,1.5-1.5H37c0.8,0,1.5,0.7,1.5,1.5S37.8,41.5,37,41.5"/>
<path class="st3" d="M26.8,41.5c-0.4,0-0.8-0.2-1.1-0.4c-0.1-0.1-0.1-0.2-0.2-0.2c-0.1-0.1-0.1-0.2-0.1-0.3c0-0.1-0.1-0.2-0.1-0.3
	c0-0.1,0-0.2,0-0.3s0-0.2,0-0.3c0-0.1,0.1-0.2,0.1-0.3c0-0.1,0.1-0.2,0.1-0.3c0.1-0.1,0.1-0.2,0.2-0.2c0.6-0.6,1.6-0.6,2.1,0
	c0.1,0.1,0.1,0.1,0.2,0.2c0,0.1,0.1,0.2,0.1,0.3c0,0.1,0.1,0.2,0.1,0.3c0,0.1,0,0.2,0,0.3s0,0.2,0,0.3c0,0.1-0.1,0.2-0.1,0.3
	c0,0.1-0.1,0.2-0.1,0.3c-0.1,0.1-0.1,0.2-0.2,0.2C27.5,41.3,27.1,41.5,26.8,41.5"/>
<path class="st3" d="M21.4,41.5H11c-0.8,0-1.5-0.7-1.5-1.5s0.7-1.5,1.5-1.5h10.4c0.8,0,1.5,0.7,1.5,1.5S22.2,41.5,21.4,41.5"/>
<path class="st3" d="M34,35.5H14c-0.8,0-1.5-0.7-1.5-1.5c0-0.8,0.7-1.5,1.5-1.5h20c0.8,0,1.5,0.7,1.5,1.5
	C35.5,34.8,34.8,35.5,34,35.5"/>
<path class="st3" d="M14,45.5c-0.1,0-0.3,0-0.4-0.1c-0.8-0.2-1.2-1.1-1-1.9l3-10c0.2-0.8,1.1-1.2,1.9-1c0.8,0.2,1.2,1.1,1,1.9l-3,10
	C15.2,45.1,14.6,45.5,14,45.5"/>
<path class="st3" d="M34,45.5c-0.6,0-1.2-0.4-1.4-1.1l-3-10c-0.2-0.8,0.2-1.6,1-1.9c0.8-0.2,1.6,0.2,1.9,1l3,10
	c0.2,0.8-0.2,1.6-1,1.9C34.3,45.5,34.1,45.5,34,45.5"/>
<path class="st3" d="M24,35.5c-0.8,0-1.5-0.7-1.5-1.5V21c0-0.8,0.7-1.5,1.5-1.5c0.8,0,1.5,0.7,1.5,1.5v13
	C25.5,34.8,24.8,35.5,24,35.5"/>
</svg>
