<?xml version="1.0" encoding="utf-8"?>
<!-- Generator: Adobe Illustrator 22.1.0, SVG Export Plug-In . SVG Version: 6.00 Build 0)  -->
<svg version="1.1" id="Layer_1" xmlns="http://www.w3.org/2000/svg" xmlns:xlink="http://www.w3.org/1999/xlink" x="0px" y="0px"
	 viewBox="0 0 48 48" style="enable-background:new 0 0 48 48;" xml:space="preserve">
<style type="text/css">
	.st0{fill:#3D3D9B;}
	.st1{fill:#FFFFFF;}
	.st2{fill:#D4D4FA;}
</style>
<path class="st0" d="M20,12.4c9.1,1.9,16,9.9,16,19.6v12h8V32c0-11-9-20-20-20C22.6,12,21.3,12.1,20,12.4"/>
<path class="st1" d="M44,39.6c-0.4,0-0.8-0.1-1.1-0.4c-0.3-0.3-0.4-0.7-0.4-1.1c0-0.1,0-0.2,0-0.3c0-0.1,0-0.2,0.1-0.3
	c0-0.1,0.1-0.2,0.1-0.3c0.1-0.1,0.1-0.2,0.2-0.2c0.6-0.6,1.6-0.6,2.1,0c0.1,0.1,0.1,0.2,0.2,0.2c0,0.1,0.1,0.2,0.1,0.3
	c0,0.1,0.1,0.2,0.1,0.3c0,0.1,0,0.2,0,0.3c0,0.4-0.2,0.8-0.4,1.1C44.8,39.4,44.4,39.6,44,39.6"/>
<path class="st1" d="M44,45.5H4c-0.8,0-1.5-0.7-1.5-1.5V32c0-11.9,9.6-21.5,21.5-21.5c11.5,0,20.9,9,21.5,20.4
	c0,0.8-0.6,1.5-1.4,1.6c-0.8,0-1.5-0.6-1.6-1.4C42,21.2,33.9,13.5,24,13.5C13.8,13.5,5.5,21.8,5.5,32v10.5H44c0.8,0,1.5,0.7,1.5,1.5
	S44.8,45.5,44,45.5"/>
<path class="st0" d="M31,44H17v-7c0-3.9,3.1-7,7-7s7,3.1,7,7V44z"/>
<path class="st1" d="M31,45.5H17c-0.8,0-1.5-0.7-1.5-1.5v-7c0-4.7,3.8-8.5,8.5-8.5s8.5,3.8,8.5,8.5v7C32.5,44.8,31.8,45.5,31,45.5
	 M18.5,42.5h11V37c0-3-2.5-5.5-5.5-5.5S18.5,34,18.5,37V42.5z"/>
<path class="st1" d="M43.9,32.5L43.9,32.5l-14.3,0c-0.8,0-1.5-0.7-1.5-1.5c0-0.8,0.7-1.5,1.5-1.5h0l14.3,0c0.8,0,1.5,0.7,1.5,1.5
	C45.4,31.8,44.8,32.5,43.9,32.5"/>
<path class="st1" d="M18.3,32.4L18.3,32.4l-13.9,0c-0.8,0-1.5-0.7-1.5-1.5c0-0.8,0.7-1.5,1.5-1.5h0l13.9,0c0.8,0,1.5,0.7,1.5,1.5
	C19.8,31.8,19.1,32.4,18.3,32.4"/>
<path class="st1" d="M40,22.5H8c-0.8,0-1.5-0.7-1.5-1.5c0-0.8,0.7-1.5,1.5-1.5h32c0.8,0,1.5,0.7,1.5,1.5
	C41.5,21.8,40.8,22.5,40,22.5"/>
<path class="st1" d="M24,21.5c-0.8,0-1.5-0.7-1.5-1.5v-8c0-0.8,0.7-1.5,1.5-1.5c0.8,0,1.5,0.7,1.5,1.5v8
	C25.5,20.8,24.8,21.5,24,21.5"/>
<path class="st1" d="M17.5,31.5c-0.8,0-1.5-0.7-1.5-1.5v-9c0-0.8,0.7-1.5,1.5-1.5c0.8,0,1.5,0.7,1.5,1.5v9
	C19,30.8,18.3,31.5,17.5,31.5"/>
<path class="st1" d="M30.5,31.5c-0.8,0-1.5-0.7-1.5-1.5v-9c0-0.8,0.7-1.5,1.5-1.5c0.8,0,1.5,0.7,1.5,1.5v9
	C32,30.8,31.3,31.5,30.5,31.5"/>
</svg>
